# xmcd
# 
# Track frame offsets:
#     150
#     23069
#     36473
#     49462
# 
# Disc length: 962
# 
# Revision: 0
# Processed by: cddbd v1.5.2PL0 Copyright (c) Steve Scherf et al.
# Submitted via: fre:ac v1.0.17
# 
DISCID=3203c004
DTITLE=谷山 浩子 - 同じ月を見ている
DYEAR=2012
DGENRE=JPOP
TTITLE0=同じ月を見ている (NHKラジオ「深夜便のうた」より)
TTITLE1=まっくら森の歌 (NHK「みんなのうた」より)
TTITLE2=恋するニワトリ (NHK「みんなのうた」より)
TTITLE3=同じ月を見ている (オリジナル・カラオケ)
EXTD=
EXTT0=
EXTT1=
EXTT2=
EXTT3=
PLAYORDER=
